<svg viewBox="0 0 100 100" xmlns="http://www.w3.org/2000/svg">
  <rect width="100" height="100" fill="#1C1C1E" rx="22"/>
  <!-- Apple logo path (simplified) -->
  <path d="M 50 22 C 45 22 41 26 41 30 C 41 32 42 34 43 35 C 39 35 34 38 32 44 C 30 50 31 57 34 62 C 37 67 41 72 46 72 C 48 72 50 71 52 70 C 54 71 56 72 58 72 C 63 72 67 67 70 62 C 73 57 74 50 72 44 C 70 38 65 35 61 35 C 62 34 63 32 63 30 C 63 26 59 22 54 22 C 52.5 22 51 22.3 50 22 Z" 
        fill="white" opacity="0.9"/>
  <ellipse cx="52" cy="18" rx="5" ry="6" fill="white" opacity="0.9" transform="rotate(-15 52 18)"/>
</svg>