<svg viewBox="0 0 100 100" xmlns="http://www.w3.org/2000/svg">
  <rect width="100" height="100" fill="#FFFFFF" rx="22"/>
  <!-- Google G logo -->
  <path d="M 70 50 L 50 50 L 50 58 L 62 58 C 60 64 55 68 50 68 C 43 68 37 62 37 55 C 37 48 43 42 50 42 C 53 42 56 43 58 45 L 64 39 C 61 36 56 34 50 34 C 38 34 29 43 29 55 C 29 67 38 76 50 76 C 62 76 71 67 71 55 C 71 53 70.7 51.5 70 50 Z" fill="#4285F4"/>
  <path d="M 29 55 L 37 55 C 37 48 43 42 50 42 L 58 45 L 64 39 C 61 36 56 34 50 34 C 38 34 29 43 29 55 Z" fill="#34A853" opacity="0.8"/>
</svg>